<svg xmlns="http://www.w3.org/2000/svg" xmlns:xlink="http://www.w3.org/1999/xlink" viewBox="0,0,256,256" width="30px" height="30px"><g fill="#ffffff" fill-rule="nonzero" stroke="none" stroke-width="1" stroke-linecap="butt" stroke-linejoin="miter" stroke-miterlimit="10" stroke-dasharray="" stroke-dashoffset="0" font-family="none" font-weight="none" font-size="none" text-anchor="none" style="mix-blend-mode: normal"><g transform="scale(8.53333,8.53333)"><path d="M5,4c-1.105,0 -2,0.895 -2,2v3v2h19h5v-3c0,-1.105 -0.895,-2 -2,-2h-12.80078l-0.61719,-1.0293c-0.361,-0.602 -1.01184,-0.9707 -1.71484,-0.9707zM2.50195,13c-1.009,0 -1.73155,0.97741 -1.43555,1.94141l2.96875,9.64648c0.259,0.839 1.03411,1.41211 1.91211,1.41211h9.05273h9.05273c0.878,0 1.65311,-0.57311 1.91211,-1.41211l2.96875,-9.64648c0.296,-0.964 -0.42655,-1.94141 -1.43555,-1.94141h-12.49805z"></path></g></g></svg>